<svg width="100" height="100" viewBox="0 0 100 100" fill="none" xmlns="http://www.w3.org/2000/svg">
<rect width="100" height="100" fill="#1D1D2A"/>
<path d="M31.004 66.736C28.3973 66.736 25.9747 66.322 23.736 65.494C21.528 64.666 19.6113 63.5007 17.986 61.998C16.3607 60.4647 15.088 58.6707 14.168 56.616C13.2787 54.5613 12.834 52.3227 12.834 49.9C12.834 47.4467 13.2787 45.208 14.168 43.184C15.088 41.1293 16.3607 39.3507 17.986 37.848C19.6113 36.3147 21.528 35.134 23.736 34.306C25.9747 33.478 28.3973 33.064 31.004 33.064C33.6413 33.064 36.064 33.478 38.272 34.306C40.48 35.134 42.3967 36.3147 44.022 37.848C45.6473 39.3507 46.9047 41.1293 47.794 43.184C48.714 45.208 49.174 47.4467 49.174 49.9C49.174 52.3227 48.714 54.5613 47.794 56.616C46.9047 58.6707 45.6473 60.4647 44.022 61.998C42.3967 63.5007 40.48 64.666 38.272 65.494C36.064 66.322 33.6413 66.736 31.004 66.736ZM41.538 74.142C40.0353 74.142 38.64 73.9887 37.352 73.682C36.064 73.406 34.8067 72.9307 33.58 72.256C32.384 71.5813 31.1267 70.646 29.808 69.45C28.4893 68.2847 27.0173 66.828 25.392 65.08L36.616 62.32C37.352 63.4547 37.9807 64.3287 38.502 64.942C39.0233 65.5553 39.5293 65.9847 40.02 66.23C40.5413 66.4753 41.124 66.598 41.768 66.598C43.3627 66.598 44.85 65.908 46.23 64.528L50.922 70.048C48.622 72.7773 45.494 74.142 41.538 74.142ZM31.004 57.95C32.016 57.95 32.9513 57.766 33.81 57.398C34.6993 57.03 35.466 56.5087 36.11 55.834C36.7847 55.1287 37.306 54.2853 37.674 53.304C38.042 52.292 38.226 51.1573 38.226 49.9C38.226 48.6427 38.042 47.5233 37.674 46.542C37.306 45.53 36.7847 44.6867 36.11 44.012C35.466 43.3067 34.6993 42.77 33.81 42.402C32.9513 42.034 32.016 41.85 31.004 41.85C29.992 41.85 29.0413 42.034 28.152 42.402C27.2933 42.77 26.5267 43.3067 25.852 44.012C25.208 44.6867 24.702 45.53 24.334 46.542C23.966 47.5233 23.782 48.6427 23.782 49.9C23.782 51.1573 23.966 52.292 24.334 53.304C24.702 54.2853 25.208 55.1287 25.852 55.834C26.5267 56.5087 27.2933 57.03 28.152 57.398C29.0413 57.766 29.992 57.95 31.004 57.95Z" fill="white"/>
<path d="M65.3502 59.1L64.7522 47.186L76.8962 33.8H88.7182L75.1022 48.796L69.0762 54.96L65.3502 59.1ZM55.6442 66V33.8H66.3162V66H55.6442ZM76.8042 66L67.3282 53.488L74.3662 46.036L89.3622 66H76.8042Z" fill="#4A83F6"/>
</svg>
